<svg viewBox="0 0 100 100" xmlns="http://www.w3.org/2000/svg">
  <rect width="100" height="100" rx="16" fill="#FFFFFF"/>
  <g fill="none" stroke="#000000" stroke-width="6" stroke-linecap="round" stroke-linejoin="round">
    <path d="M -5 25 Q 25 25 25 -5" />
    <path d="M 55 -5 L 55 25 Q 55 45 80 45 L 105 45" />
    <path d="M 80 45 L 80 20 L 80 -5" />
    <path d="M -5 60 L 30 60 Q 55 60 55 85 L 55 105" />
    <path d="M 25 105 L 25 90 Q 25 80 5 80 L -5 80" />
    <path d="M 105 75 Q 80 75 80 95 L 80 105" />
    <path d="M 105 105 L 100 100" />
    <path d="M 105 95 Q 105 105 95 105" />
  </g>
</svg>